<?xml version="1.0"
 encoding="UTF-8" 
 standalone="no"?>
 <svg xmlnsSvg="http://www.w3.org/2000/svg"
 xmlns="http://www.w3.org/2000/svg"
 xmlnsXlink="http://www.w3.org/1999/xlink"
 version="1.0" width="64px" height="64px"
 viewBox="0 0 128 128" xmlSpace="preserve">
    <g>
        <ellipse cx="64" cy="18.75" rx="6.25" ry="18.75" fill="#ffffff"/>
        <ellipse cx="64" cy="18.75" rx="6.25" ry="18.75" fill="#ffffff" transform="rotate(30 64 64)"/>
        <ellipse cx="64" cy="18.75" rx="6.25" ry="18.75" fill="#e7f1f0" transform="rotate(60 64 64)"/>
        <ellipse cx="64" cy="18.75" rx="6.25" ry="18.75" fill="#cfe4e2" transform="rotate(90 64 64)"/>
        <ellipse cx="64" cy="18.75" rx="6.25" ry="18.75" fill="#b7d6d3" transform="rotate(120 64 64)"/>
        <ellipse cx="64" cy="18.75" rx="6.25" ry="18.75" fill="#9fc8c5" transform="rotate(150 64 64)"/>
        <ellipse cx="64" cy="18.75" rx="6.25" ry="18.75" fill="#87bab6" transform="rotate(180 64 64)"/>
        <ellipse cx="64" cy="18.75" rx="6.25" ry="18.75" fill="#6fada8" transform="rotate(210 64 64)"/>
        <ellipse cx="64" cy="18.75" rx="6.25" ry="18.75" fill="#579f99" transform="rotate(240 64 64)"/>
        <ellipse cx="64" cy="18.75" rx="6.25" ry="18.75" fill="#3f918b" transform="rotate(270 64 64)"/>
        <ellipse cx="64" cy="18.75" rx="6.25" ry="18.75" fill="#27837c" transform="rotate(300 64 64)"/>
        <ellipse cx="64" cy="18.75" rx="6.25" ry="18.75" fill="#0f766e" transform="rotate(330 64 64)"/>
        <animateTransform 
        attributeName="transform" type="rotate" values="0 64 64;30 64 64;60 64 64;90 64 64;120 64 64;150 64 64;180 64 64;210 64 64;240 64 64;270 64 64;300 64 64;330 64 64"
        calcMode="discrete"
        dur="1080ms"
        repeatCount="indefinite">
        </animateTransform>
    </g>
</svg>